<?xml version="1.0" standalone="no"?>
<!DOCTYPE svg PUBLIC "-//W3C//DTD SVG 20010904//EN"
 "http://www.w3.org/TR/2001/REC-SVG-20010904/DTD/svg10.dtd">
<svg version="1.0" xmlns="http://www.w3.org/2000/svg"
 width="200.000000pt" height="200.000000pt" viewBox="0 0 200.000000 200.000000"
 preserveAspectRatio="xMidYMid meet">

<g transform="translate(0.000000,200.000000) scale(0.100000,-0.100000)"
fill="#000000" stroke="none">
<path d="M855 1993 c-74 -11 -197 -48 -272 -83 -217 -102 -379 -261 -483 -475
-66 -134 -91 -239 -97 -395 -13 -331 129 -634 389 -830 397 -301 938 -270
1296 74 369 354 411 914 101 1326 -186 246 -484 392 -794 388 -60 0 -123 -3
-140 -5z m9 -723 c77 -17 136 -84 136 -154 -1 -66 -38 -215 -65 -262 -48 -81
-114 -114 -229 -114 -132 1 -201 56 -200 160 0 72 30 192 62 253 53 99 171
146 296 117z m581 -19 c53 -24 76 -51 82 -99 10 -74 -36 -165 -100 -199 -21
-11 -67 -19 -132 -22 l-99 -6 -19 -85 c-11 -47 -25 -88 -31 -92 -20 -13 -116
-9 -122 5 -4 11 87 464 101 505 3 9 41 12 142 12 112 0 145 -4 178 -19z"/>
<path d="M744 1160 c-36 -14 -62 -58 -78 -130 -19 -82 -21 -151 -4 -168 17
-17 89 -15 116 4 12 8 28 27 36 42 16 32 46 160 46 196 0 52 -58 80 -116 56z"/>
<path d="M1231 1110 c-17 -81 -18 -80 45 -80 48 0 59 4 85 29 30 31 38 68 17
89 -7 7 -39 12 -74 12 l-62 0 -11 -50z"/>
</g>
</svg>
